<svg width="30" height="30" viewBox="0 0 30 30" fill="none" xmlns="http://www.w3.org/2000/svg">
<path fill-rule="evenodd" clip-rule="evenodd" d="M14.6875 5C16.4052 5 17.7976 6.38117 17.7976 8.08494V15.9682C19.4926 17.004 20.625 18.8624 20.625 20.9856C20.625 24.2382 17.9667 26.875 14.6875 26.875C11.4083 26.875 8.75 24.2382 8.75 20.9856C8.75 18.8624 9.88237 17.004 11.5774 15.9682V8.08494C11.5774 6.38117 12.9698 5 14.6875 5ZM12.9911 16.8246C11.3332 17.4902 10.1637 19.1024 10.1637 20.9856C10.1637 23.4638 12.1891 25.4728 14.6875 25.4728C17.1859 25.4728 19.2113 23.4638 19.2113 20.9856C19.2113 19.1024 18.0418 17.4902 16.3839 16.8246V8.08494C16.3839 7.15561 15.6244 6.40224 14.6875 6.40224C13.7506 6.40224 12.9911 7.15561 12.9911 8.08494V16.8246Z" fill="#D8D9DA"/>
<path d="M18.4375 20.9375C18.4375 23.0086 16.7586 24.6875 14.6875 24.6875C12.6164 24.6875 10.9375 23.0086 10.9375 20.9375C10.9375 18.8664 12.6164 17.1875 14.6875 17.1875C16.7586 17.1875 18.4375 18.8664 18.4375 20.9375Z" fill="#00A4EF"/>
<path d="M15.625 15.3125C15.625 14.7947 15.2053 14.375 14.6875 14.375C14.1697 14.375 13.75 14.7947 13.75 15.3125V19.6875C13.75 20.2053 14.1697 20.625 14.6875 20.625C15.2053 20.625 15.625 20.2053 15.625 19.6875V15.3125Z" fill="#00A4EF"/>
</svg>
