<svg width="25" height="14" viewBox="0 0 25 14" fill="none" xmlns="http://www.w3.org/2000/svg">
<path d="M12.3108 3.09285C12.5883 3.09285 12.8154 2.86581 12.8154 2.58831V0.504543C12.8154 0.227044 12.5883 0 12.3108 0C12.0333 0 11.8063 0.227044 11.8063 0.504543V2.58831C11.8063 2.86581 12.0333 3.09285 12.3108 3.09285Z" fill="#909090"/>
<path d="M18.7337 5.25734C18.8649 5.25734 19.0011 5.20689 19.097 5.10094L20.6409 3.49649C20.8326 3.29972 20.8225 2.97681 20.6257 2.78508C20.429 2.59336 20.1061 2.5984 19.9143 2.80022L18.3704 4.40467C18.1787 4.60144 18.1837 4.92434 18.3856 5.11607C18.4814 5.21193 18.6076 5.25734 18.7337 5.25734Z" fill="#909090"/>
<path d="M5.52474 5.10094C5.62565 5.20689 5.75683 5.25734 5.88801 5.25734C6.01414 5.25734 6.14028 5.21193 6.23614 5.11607C6.43796 4.92434 6.44301 4.60648 6.25128 4.40467L4.70738 2.80022C4.51565 2.5984 4.19779 2.59336 3.99597 2.78508C3.79416 2.97681 3.78911 3.29467 3.98084 3.49649L5.52474 5.10094Z" fill="#909090"/>
<path d="M12.6741 8.69328C12.5783 8.59237 12.4471 8.53687 12.3108 8.53687C12.1746 8.53687 12.0434 8.59237 11.9476 8.69328L9.90418 10.8174C9.71245 11.0142 9.7175 11.3371 9.91931 11.5288C10.1161 11.7205 10.439 11.7155 10.6307 11.5137L12.3108 9.76795L13.991 11.5137C14.1827 11.7155 14.5006 11.7205 14.7024 11.5288C14.9042 11.3371 14.9092 11.0192 14.7175 10.8174L12.6741 8.69328Z" fill="#909090"/>
<path d="M24.1171 9.58127H22.1091C21.8316 9.58127 21.6045 9.80831 21.6045 10.0858C21.6045 10.3633 21.8316 10.5904 22.1091 10.5904H24.1171C24.3946 10.5904 24.6217 10.3633 24.6217 10.0858C24.6217 9.80831 24.3946 9.58127 24.1171 9.58127Z" fill="#909090"/>
<path d="M3.01717 10.0858C3.01717 9.80831 2.79012 9.58127 2.51262 9.58127H0.504543C0.227044 9.58127 0 9.80831 0 10.0858C0 10.3633 0.227044 10.5904 0.504543 10.5904H2.51262C2.79012 10.5904 3.01717 10.3633 3.01717 10.0858Z" fill="#909090"/>
<path d="M22.5733 12.7851H20.0102C19.8841 10.8376 19.0869 9.02123 17.7397 7.63879C16.2816 6.14534 14.3543 5.32798 12.3109 5.32798C10.2675 5.32798 8.33506 6.15038 6.88198 7.63879C5.5298 9.02123 4.73263 10.8325 4.61154 12.7851H2.04846C1.77096 12.7851 1.54391 13.0122 1.54391 13.2897C1.54391 13.5672 1.77096 13.7942 2.04846 13.7942H22.5733C22.8508 13.7942 23.0778 13.5672 23.0778 13.2897C23.0778 13.0122 22.8508 12.7851 22.5733 12.7851ZM5.62062 12.7851C5.88803 9.19278 8.79924 6.33707 12.3109 6.33707C15.8225 6.33707 18.7337 9.18773 19.0011 12.7851H5.62062Z" fill="#909090"/>
</svg>
