<svg width="20" height="16" viewBox="0 0 20 16" fill="none" xmlns="http://www.w3.org/2000/svg">
<path d="M9.88172 6.11735C13.4935 6.11736 16.4319 9.05555 16.4319 12.6676C16.4319 13.3748 16.3197 14.0705 16.0986 14.736C16.0347 14.9285 15.8548 15.0581 15.6521 15.0581L4.11143 15.0581C3.90873 15.0581 3.72886 14.9285 3.66499 14.736C3.44369 14.0706 3.33165 13.3749 3.33165 12.6676C3.33152 9.05555 6.26998 6.11735 9.88172 6.11735ZM4.46153 14.1168L15.3019 14.1168C15.4274 13.6462 15.4907 13.16 15.4907 12.6674C15.4907 9.57483 12.9746 7.0584 9.88172 7.05839C6.78886 7.05839 4.27269 9.57483 4.27269 12.6674C4.27269 13.16 4.33603 13.6462 4.46153 14.1168Z" fill="#909090"/>
<path d="M16.1369 7.66688L18.9603 4.8435C19.1441 4.65967 19.4418 4.65967 19.6256 4.8435C19.8094 5.02732 19.8094 5.32504 19.6256 5.50886L16.8024 8.33225C16.7104 8.42409 16.59 8.47002 16.4697 8.47002C16.3493 8.47002 16.2288 8.42409 16.137 8.33212C15.953 8.14842 15.953 7.85071 16.1369 7.66688Z" fill="#909090"/>
<path d="M0.137846 4.8435C0.321672 4.65967 0.619384 4.65967 0.80321 4.8435L3.62659 7.66688C3.81042 7.85071 3.81042 8.14842 3.62659 8.33225C3.53462 8.42409 3.41426 8.47002 3.29391 8.47002C3.17356 8.47002 3.05308 8.42409 2.96123 8.33212L0.137846 5.50873C-0.045981 5.32504 -0.045981 5.02732 0.137846 4.8435Z" fill="#909090"/>
<path d="M9.88174 5.17618C9.6219 5.17618 9.41115 4.9657 9.41115 4.7056L9.41115 0.470586C9.41115 0.210484 9.6219 -6.38558e-08 9.88174 -4.114e-08C10.1416 -1.84242e-08 10.3523 0.210484 10.3523 0.470586L10.3523 4.7056C10.3523 4.9657 10.1416 5.17618 9.88174 5.17618Z" fill="#909090"/>
<path d="M9.62352 11.676L9.62352 8.84163L10.1088 8.84163L10.1088 11.676L11.2386 10.5019L11.5817 10.8583L10.0377 12.4628C9.99217 12.5101 9.93045 12.5366 9.86616 12.5366C9.80186 12.5366 9.74014 12.5101 9.69462 12.4628L8.15061 10.8583L8.49368 10.5019L9.62352 11.676Z" fill="#909090"/>
</svg>
